<svg width="28" height="28" viewBox="0 0 28 28" fill="none" xmlns="http://www.w3.org/2000/svg">
<path fill-rule="evenodd" clip-rule="evenodd" d="M16.7825 18.0203C15.21 19.2767 13.2162 19.8833 11.2104 19.7155C9.20462 19.5477 7.33923 18.6183 5.99733 17.1181C4.65543 15.6179 3.93889 13.6609 3.99487 11.6489C4.05085 9.63689 4.87511 7.7227 6.29836 6.29946C7.7216 4.87621 9.63579 4.05195 11.6478 3.99597C13.6598 3.93999 15.6168 4.65653 17.117 5.99843C18.6172 7.34033 19.5466 9.20572 19.7144 11.2115C19.8822 13.2173 19.2756 15.2111 18.0192 16.7836L24.0345 22.7978C24.1205 22.8779 24.1894 22.9745 24.2373 23.0818C24.2851 23.1892 24.3108 23.305 24.3129 23.4225C24.315 23.54 24.2933 23.6567 24.2493 23.7656C24.2053 23.8746 24.1398 23.9736 24.0567 24.0567C23.9736 24.1398 23.8747 24.2053 23.7657 24.2493C23.6568 24.2933 23.5401 24.3149 23.4226 24.3128C23.3051 24.3107 23.1892 24.285 23.0819 24.2372C22.9746 24.1894 22.878 24.1204 22.7979 24.0345L16.7825 18.0203ZM7.53552 16.198C6.67924 15.3416 6.09603 14.2506 5.85962 13.0629C5.6232 11.8751 5.74419 10.644 6.20729 9.52497C6.67038 8.40598 7.4548 7.44938 8.4614 6.77607C9.46801 6.10276 10.6516 5.74296 11.8627 5.74215C13.0737 5.74133 14.2578 6.09954 15.2653 6.77149C16.2728 7.44345 17.0585 8.39899 17.5231 9.51735C17.9877 10.6357 18.1103 11.8667 17.8755 13.0548C17.6407 14.2428 17.059 15.3346 16.2039 16.1921L16.198 16.198L16.1922 16.2026C15.0431 17.349 13.486 17.9924 11.8629 17.9916C10.2398 17.9907 8.68334 17.3456 7.53552 16.198Z" fill="white"/>
</svg>
