<svg width="28" height="28" viewBox="0 0 28 28" fill="none" xmlns="http://www.w3.org/2000/svg">
<path d="M22.309 3.5C22.425 3.5 22.5363 3.54609 22.6184 3.62814C22.7004 3.71019 22.7465 3.82147 22.7465 3.9375L22.75 18.8125C22.75 19.054 22.554 19.25 22.3125 19.25H19.25V21H22.3125C23.52 21 24.5 20.02 24.5 18.8125L24.4965 3.9375C24.4965 2.73 23.5165 1.75 22.309 1.75H14.4287C13.2212 1.75 12.2412 2.73 12.2412 3.93925L12.2447 7.4375C12.2447 7.679 12.0505 7.875 11.8072 7.875H10.9375C10.3725 7.87453 9.82919 8.09271 9.42142 8.48383C9.01366 8.87496 8.77305 9.4087 8.75 9.97325C9.55493 9.50951 10.511 9.38425 11.4083 9.625H11.8072C12.0947 9.625 12.3793 9.56836 12.6448 9.45832C12.9103 9.34828 13.1515 9.18699 13.3547 8.98368C13.5578 8.78036 13.7189 8.53901 13.8287 8.27341C13.9386 8.00781 13.995 7.72316 13.9947 7.43575L13.9912 3.9375C13.9912 3.82147 14.0373 3.71019 14.1194 3.62814C14.2014 3.54609 14.3127 3.5 14.4287 3.5H22.309ZM9.30825 11.725C9.63195 11.4244 10.0574 11.2573 10.4991 11.2573C10.9409 11.2573 11.3663 11.4244 11.69 11.725L16.66 16.3397C16.925 16.5855 17.1364 16.8833 17.2809 17.2146C17.4255 17.5458 17.5 17.9033 17.5 18.2648V24.5C17.5 24.9641 17.3156 25.4092 16.9874 25.7374C16.6592 26.0656 16.2141 26.25 15.75 26.25H13.125C12.6609 26.25 12.2158 26.0656 11.8876 25.7374C11.5594 25.4092 11.375 24.9641 11.375 24.5V22.75H9.625V24.5C9.625 24.9641 9.44063 25.4092 9.11244 25.7374C8.78425 26.0656 8.33913 26.25 7.875 26.25H5.25C4.78587 26.25 4.34075 26.0656 4.01256 25.7374C3.68437 25.4092 3.5 24.9641 3.5 24.5V18.263C3.49996 17.9016 3.57454 17.5441 3.71908 17.2128C3.86363 16.8816 4.07501 16.5838 4.34 16.338L9.30825 11.725ZM15.47 17.6225L10.5 13.006L5.53 17.6225C5.44181 17.7043 5.37144 17.8034 5.32326 17.9136C5.27509 18.0238 5.25015 18.1427 5.25 18.263V24.5H7.875V22.75C7.875 22.2859 8.05937 21.8408 8.38756 21.5126C8.71575 21.1844 9.16087 21 9.625 21H11.375C11.8391 21 12.2842 21.1844 12.6124 21.5126C12.9406 21.8408 13.125 22.2859 13.125 22.75V24.5H15.75V18.263C15.7499 18.1427 15.7249 18.0238 15.6767 17.9136C15.6286 17.8034 15.5582 17.7043 15.47 17.6225ZM19.25 6.125C19.25 6.35706 19.3422 6.57962 19.5063 6.74372C19.6704 6.90781 19.8929 7 20.125 7C20.3571 7 20.5796 6.90781 20.7437 6.74372C20.9078 6.57962 21 6.35706 21 6.125C21 5.89294 20.9078 5.67038 20.7437 5.50628C20.5796 5.34219 20.3571 5.25 20.125 5.25C19.8929 5.25 19.6704 5.34219 19.5063 5.50628C19.3422 5.67038 19.25 5.89294 19.25 6.125ZM20.125 10.5C19.8929 10.5 19.6704 10.4078 19.5063 10.2437C19.3422 10.0796 19.25 9.85706 19.25 9.625C19.25 9.39294 19.3422 9.17038 19.5063 9.00628C19.6704 8.84219 19.8929 8.75 20.125 8.75C20.3571 8.75 20.5796 8.84219 20.7437 9.00628C20.9078 9.17038 21 9.39294 21 9.625C21 9.85706 20.9078 10.0796 20.7437 10.2437C20.5796 10.4078 20.3571 10.5 20.125 10.5ZM19.25 13.125C19.25 13.3571 19.3422 13.5796 19.5063 13.7437C19.6704 13.9078 19.8929 14 20.125 14C20.3571 14 20.5796 13.9078 20.7437 13.7437C20.9078 13.5796 21 13.3571 21 13.125C21 12.8929 20.9078 12.6704 20.7437 12.5063C20.5796 12.3422 20.3571 12.25 20.125 12.25C19.8929 12.25 19.6704 12.3422 19.5063 12.5063C19.3422 12.6704 19.25 12.8929 19.25 13.125ZM16.625 7C16.3929 7 16.1704 6.90781 16.0063 6.74372C15.8422 6.57962 15.75 6.35706 15.75 6.125C15.75 5.89294 15.8422 5.67038 16.0063 5.50628C16.1704 5.34219 16.3929 5.25 16.625 5.25C16.8571 5.25 17.0796 5.34219 17.2437 5.50628C17.4078 5.67038 17.5 5.89294 17.5 6.125C17.5 6.35706 17.4078 6.57962 17.2437 6.74372C17.0796 6.90781 16.8571 7 16.625 7ZM15.75 9.625C15.75 9.85706 15.8422 10.0796 16.0063 10.2437C16.1704 10.4078 16.3929 10.5 16.625 10.5C16.8571 10.5 17.0796 10.4078 17.2437 10.2437C17.4078 10.0796 17.5 9.85706 17.5 9.625C17.5 9.39294 17.4078 9.17038 17.2437 9.00628C17.0796 8.84219 16.8571 8.75 16.625 8.75C16.3929 8.75 16.1704 8.84219 16.0063 9.00628C15.8422 9.17038 15.75 9.39294 15.75 9.625ZM16.625 14C16.3929 14 16.1704 13.9078 16.0063 13.7437C15.8422 13.5796 15.75 13.3571 15.75 13.125C15.75 12.8929 15.8422 12.6704 16.0063 12.5063C16.1704 12.3422 16.3929 12.25 16.625 12.25C16.8571 12.25 17.0796 12.3422 17.2437 12.5063C17.4078 12.6704 17.5 12.8929 17.5 13.125C17.5 13.3571 17.4078 13.5796 17.2437 13.7437C17.0796 13.9078 16.8571 14 16.625 14Z" fill="black"/>
</svg>
