<svg width="15" height="14" viewBox="0 0 15 14" fill="none" xmlns="http://www.w3.org/2000/svg">
<path d="M14.5 7C14.5 10.866 11.366 14 7.5 14C3.634 14 0.5 10.866 0.5 7C0.5 3.134 3.634 0 7.5 0C11.366 0 14.5 3.134 14.5 7Z" fill="#C21405"/>
<path d="M2.5 6.5C2.5 6.36739 2.55268 6.24021 2.64645 6.14645C2.74021 6.05268 2.86739 6 3 6H12C12.1326 6 12.2598 6.05268 12.3536 6.14645C12.4473 6.24021 12.5 6.36739 12.5 6.5V7.5C12.5 7.63261 12.4473 7.75979 12.3536 7.85355C12.2598 7.94732 12.1326 8 12 8H3C2.86739 8 2.74021 7.94732 2.64645 7.85355C2.55268 7.75979 2.5 7.63261 2.5 7.5V6.5Z" fill="white"/>
</svg>
