<svg width="18" height="19" viewBox="0 0 18 19" fill="none" xmlns="http://www.w3.org/2000/svg">
<path d="M0.585786 10.9142C-0.195263 10.1332 -0.195262 8.86684 0.585787 8.08579L7.25763 1.41394C8.03868 0.632893 9.30501 0.632894 10.0861 1.41394L16.7579 8.08579C17.539 8.86684 17.539 10.1332 16.7579 10.9142L10.0861 17.5861C9.30501 18.3671 8.03868 18.3671 7.25763 17.5861L0.585786 10.9142Z" fill="#F0AD00"/>
<path d="M6.87849 12.3428C6.48797 12.7333 5.8548 12.7333 5.46428 12.3428L3.69639 10.5749C3.40644 10.285 3.40644 9.81486 3.69639 9.52491C3.98634 9.23496 4.45644 9.23496 4.74639 9.52491L6.17139 10.9499L10.5964 6.52491C10.8863 6.23496 11.3564 6.23496 11.6464 6.52491C11.9363 6.81486 11.9363 7.28496 11.6464 7.57491L6.87849 12.3428Z" fill="white"/>
</svg>
