<svg width="40" height="40" viewBox="0 0 40 40" fill="none" xmlns="http://www.w3.org/2000/svg">
<circle cx="20" cy="20" r="20" fill="#0069F0"/>
<path fill-rule="evenodd" clip-rule="evenodd" d="M13.7334 11.3333H13.6667C13.3614 11.3333 13.0987 11.3333 12.8667 11.3879C12.5076 11.4737 12.1792 11.6573 11.9179 11.9183C11.6567 12.1793 11.4729 12.5075 11.3867 12.8666C11.3334 13.0986 11.3334 13.3599 11.3334 13.6666V16.9999C11.3334 17.3053 11.3334 17.5679 11.388 17.7999C11.4739 18.1591 11.6574 18.4875 11.9184 18.7487C12.1794 19.0099 12.5076 19.1938 12.8667 19.2799C13.0987 19.3333 13.36 19.3333 13.6667 19.3333H17C17.3054 19.3333 17.568 19.3333 17.8 19.2786C18.1592 19.1928 18.4876 19.0092 18.7488 18.7482C19.01 18.4872 19.1939 18.159 19.28 17.7999C19.3334 17.5679 19.3334 17.3066 19.3334 16.9999V13.6666C19.3334 13.3613 19.3334 13.0986 19.2787 12.8666C19.1929 12.5074 19.0093 12.1791 18.7483 11.9178C18.4873 11.6566 18.1591 11.4727 17.8 11.3866C17.568 11.3333 17.3067 11.3333 17 11.3333H13.7334ZM13.1774 12.6853C13.2347 12.6719 13.324 12.6666 13.7334 12.6666H16.9334C17.344 12.6666 17.432 12.6706 17.4894 12.6853C17.6091 12.7139 17.7186 12.7752 17.8057 12.8622C17.8928 12.9493 17.9541 13.0588 17.9827 13.1786C17.996 13.2346 18 13.3226 18 13.7333V16.9333C18 17.3439 17.996 17.4319 17.9814 17.4893C17.9527 17.609 17.8915 17.7185 17.8044 17.8056C17.7173 17.8927 17.6078 17.9539 17.488 17.9826C17.4334 17.9946 17.3454 17.9999 16.9334 17.9999H13.7334C13.3227 17.9999 13.2347 17.9959 13.1774 17.9813C13.0576 17.9526 12.9481 17.8914 12.861 17.8043C12.7739 17.7172 12.7127 17.6077 12.684 17.4879C12.672 17.4333 12.6667 17.3453 12.6667 16.9333V13.7333C12.6667 13.3226 12.6707 13.2346 12.6854 13.1773C12.714 13.0575 12.7753 12.948 12.8624 12.8609C12.9494 12.7738 13.0589 12.7126 13.1787 12.6839L13.1774 12.6853ZM23.0667 11.3333H23C22.6947 11.3333 22.432 11.3333 22.2 11.3879C21.8409 11.4737 21.5125 11.6573 21.2513 11.9183C20.9901 12.1793 20.8062 12.5075 20.72 12.8666C20.6667 13.0986 20.6667 13.3599 20.6667 13.6666V16.9999C20.6667 17.3053 20.6667 17.5679 20.7214 17.7999C20.8072 18.1591 20.9908 18.4875 21.2518 18.7487C21.5128 19.0099 21.841 19.1938 22.2 19.2799C22.432 19.3333 22.6934 19.3333 23 19.3333H26.3334C26.6387 19.3333 26.9014 19.3333 27.1334 19.2786C27.4925 19.1928 27.8209 19.0092 28.0821 18.7482C28.3434 18.4872 28.5272 18.159 28.6134 17.7999C28.6667 17.5679 28.6667 17.3066 28.6667 16.9999V13.6666C28.6667 13.3613 28.6667 13.0986 28.612 12.8666C28.5262 12.5074 28.3426 12.1791 28.0817 11.9178C27.8207 11.6566 27.4924 11.4727 27.1334 11.3866C26.9014 11.3333 26.64 11.3333 26.3334 11.3333H23.0667ZM22.5107 12.6853C22.568 12.6719 22.6574 12.6666 23.0667 12.6666H26.2667C26.6774 12.6666 26.7654 12.6706 26.8227 12.6853C26.9425 12.7139 27.052 12.7752 27.1391 12.8622C27.2261 12.9493 27.2874 13.0588 27.316 13.1786C27.3294 13.2346 27.3334 13.3226 27.3334 13.7333V16.9333C27.3334 17.3439 27.328 17.4319 27.3147 17.4893C27.2861 17.609 27.2248 17.7185 27.1377 17.8056C27.0506 17.8927 26.9411 17.9539 26.8214 17.9826C26.7654 17.9959 26.6774 17.9999 26.2667 17.9999H23.0667C22.656 17.9999 22.568 17.9959 22.5107 17.9813C22.3909 17.9526 22.2814 17.8914 22.1944 17.8043C22.1073 17.7172 22.046 17.6077 22.0174 17.4879C22.0054 17.4333 22 17.3453 22 16.9333V13.7333C22 13.3226 22.004 13.2346 22.0187 13.1773C22.0473 13.0575 22.1086 12.948 22.1957 12.8609C22.2828 12.7738 22.3923 12.7126 22.512 12.6839L22.5107 12.6853ZM13.6667 20.6666H17C17.3054 20.6666 17.568 20.6666 17.8 20.7213C18.1592 20.8071 18.4876 20.9906 18.7488 21.2516C19.01 21.5126 19.1939 21.8408 19.28 22.1999C19.3334 22.4319 19.3334 22.6933 19.3334 22.9999V26.3333C19.3334 26.6386 19.3334 26.9013 19.2787 27.1333C19.1929 27.4924 19.0093 27.8208 18.7483 28.082C18.4873 28.3432 18.1591 28.5271 17.8 28.6133C17.568 28.6666 17.3067 28.6666 17 28.6666H13.6667C13.3614 28.6666 13.0987 28.6666 12.8667 28.6119C12.5076 28.5261 12.1792 28.3425 11.9179 28.0815C11.6567 27.8205 11.4729 27.4923 11.3867 27.1333C11.3334 26.9013 11.3334 26.6399 11.3334 26.3333V22.9999C11.3334 22.6946 11.3334 22.4319 11.388 22.1999C11.4739 21.8408 11.6574 21.5124 11.9184 21.2512C12.1794 20.9899 12.5076 20.8061 12.8667 20.7199C13.0987 20.6666 13.36 20.6666 13.6667 20.6666ZM13.7334 21.9999C13.3227 21.9999 13.2347 22.0039 13.1774 22.0186C13.0576 22.0472 12.9481 22.1085 12.861 22.1956C12.7739 22.2826 12.7127 22.3921 12.684 22.5119C12.672 22.5666 12.6667 22.6546 12.6667 23.0666V26.2666C12.6667 26.6773 12.6707 26.7653 12.6854 26.8226C12.714 26.9424 12.7753 27.0519 12.8624 27.1389C12.9494 27.226 13.0589 27.2873 13.1787 27.3159C13.2347 27.3293 13.3227 27.3333 13.7334 27.3333H16.9334C17.344 27.3333 17.432 27.3279 17.4894 27.3146C17.6091 27.2859 17.7186 27.2247 17.8057 27.1376C17.8928 27.0505 17.9541 26.941 17.9827 26.8213C17.996 26.7653 18 26.6773 18 26.2666V23.0666C18 22.6559 17.996 22.5679 17.9814 22.5106C17.9527 22.3908 17.8915 22.2813 17.8044 22.1942C17.7173 22.1072 17.6078 22.0459 17.488 22.0173C17.4334 22.0053 17.3454 21.9999 16.9334 21.9999H13.7334ZM23.0667 20.6666H23C22.6947 20.6666 22.432 20.6666 22.2 20.7213C21.8409 20.8071 21.5125 20.9906 21.2513 21.2516C20.9901 21.5126 20.8062 21.8408 20.72 22.1999C20.6667 22.4319 20.6667 22.6933 20.6667 22.9999V26.3333C20.6667 26.6386 20.6667 26.9013 20.7214 27.1333C20.8072 27.4924 20.9908 27.8208 21.2518 28.082C21.5128 28.3432 21.841 28.5271 22.2 28.6133C22.432 28.6679 22.6947 28.6679 23 28.6679H26.3334C26.6387 28.6679 26.9014 28.6679 27.1334 28.6133C27.4923 28.5272 27.8204 28.3435 28.0814 28.0826C28.3423 27.8216 28.526 27.4935 28.612 27.1346C28.6667 26.9026 28.6667 26.6399 28.6667 26.3346V22.9999C28.6667 22.6946 28.6667 22.4319 28.612 22.1999C28.5262 21.8408 28.3426 21.5124 28.0817 21.2512C27.8207 20.9899 27.4924 20.8061 27.1334 20.7199C26.9014 20.6666 26.64 20.6666 26.3334 20.6666H23.0667ZM22.5107 22.0186C22.568 22.0053 22.6574 21.9999 23.0667 21.9999H26.2667C26.6774 21.9999 26.7654 22.0039 26.8227 22.0186C26.9425 22.0472 27.052 22.1085 27.1391 22.1956C27.2261 22.2826 27.2874 22.3921 27.316 22.5119C27.3294 22.5679 27.3334 22.6559 27.3334 23.0666V26.2666C27.3334 26.6773 27.328 26.7653 27.3147 26.8226C27.2861 26.9424 27.2248 27.0519 27.1377 27.1389C27.0506 27.226 26.9411 27.2873 26.8214 27.3159C26.7654 27.3293 26.6774 27.3333 26.2667 27.3333H23.0667C22.656 27.3333 22.568 27.3279 22.5107 27.3146C22.3909 27.2859 22.2814 27.2247 22.1944 27.1376C22.1073 27.0505 22.046 26.941 22.0174 26.8213C22.0054 26.7666 22 26.6786 22 26.2666V23.0666C22 22.6559 22.004 22.5679 22.0187 22.5106C22.0473 22.3908 22.1086 22.2813 22.1957 22.1942C22.2828 22.1072 22.3923 22.0459 22.512 22.0173L22.5107 22.0186Z" fill="white"/>
</svg>
