<svg width="30" height="30" viewBox="0 0 30 30" fill="none" xmlns="http://www.w3.org/2000/svg">
<path d="M5.625 25.3125C5.37737 25.3093 5.14079 25.2095 4.96567 25.0343C4.79055 24.8592 4.69074 24.6226 4.6875 24.375V5.625C4.6875 5.37636 4.78627 5.1379 4.96209 4.96209C5.1379 4.78627 5.37636 4.6875 5.625 4.6875C5.87364 4.6875 6.1121 4.78627 6.28791 4.96209C6.46373 5.1379 6.5625 5.37636 6.5625 5.625V24.375C6.55926 24.6226 6.45945 24.8592 6.28433 25.0343C6.10921 25.2095 5.87263 25.3093 5.625 25.3125Z" fill="black"/>
<path d="M24.375 25.3126H5.625C5.37636 25.3126 5.1379 25.2138 4.96209 25.038C4.78627 24.8622 4.6875 24.6237 4.6875 24.3751C4.6875 24.1264 4.78627 23.888 4.96209 23.7121C5.1379 23.5363 5.37636 23.4376 5.625 23.4376H24.375C24.6236 23.4376 24.8621 23.5363 25.0379 23.7121C25.2137 23.888 25.3125 24.1264 25.3125 24.3751C25.3125 24.6237 25.2137 24.8622 25.0379 25.038C24.8621 25.2138 24.6236 25.3126 24.375 25.3126ZM17.5 18.4376C17.3768 18.4381 17.2548 18.4141 17.141 18.3669C17.0272 18.3197 16.9241 18.2502 16.8375 18.1626L13.75 15.0751L10.6625 18.1626C10.4848 18.3282 10.2497 18.4183 10.0068 18.414C9.76397 18.4097 9.53224 18.3113 9.36047 18.1396C9.18871 17.9678 9.09032 17.7361 9.08603 17.4932C9.08175 17.2503 9.1719 17.0153 9.3375 16.8376L13.0875 13.0876C13.2633 12.912 13.5016 12.8134 13.75 12.8134C13.9984 12.8134 14.2367 12.912 14.4125 13.0876L17.5 16.1751L21.8375 11.8376C22.0152 11.672 22.2503 11.5818 22.4932 11.5861C22.736 11.5904 22.9678 11.6888 23.1395 11.8605C23.3113 12.0323 23.4097 12.264 23.414 12.5069C23.4183 12.7498 23.3281 12.9848 23.1625 13.1626L18.1625 18.1626C18.0759 18.2502 17.9728 18.3197 17.859 18.3669C17.7452 18.4141 17.6232 18.4381 17.5 18.4376Z" fill="black"/>
<path d="M23.125 17.3C22.8774 17.2968 22.6408 17.197 22.4657 17.0218C22.2905 16.8467 22.1907 16.6101 22.1875 16.3625V12.8125H18.75C18.5014 12.8125 18.2629 12.7137 18.0871 12.5379C17.9113 12.3621 17.8125 12.1236 17.8125 11.875C17.8125 11.6264 17.9113 11.3879 18.0871 11.2121C18.2629 11.0363 18.5014 10.9375 18.75 10.9375H23.125C23.3726 10.9407 23.6092 11.0405 23.7843 11.2157C23.9595 11.3908 24.0593 11.6274 24.0625 11.875V16.3625C24.0593 16.6101 23.9595 16.8467 23.7843 17.0218C23.6092 17.197 23.3726 17.2968 23.125 17.3Z" fill="black"/>
</svg>
