<svg width="56" height="22" viewBox="0 0 56 22" fill="none" xmlns="http://www.w3.org/2000/svg">
<path d="M7.90089 5.54878V8.45683C7.0284 8.22284 6.18946 8.25627 5.35053 8.52368C4.84717 8.69081 4.37737 8.92479 4.00824 9.29247C3.57199 9.72701 3.37065 10.2284 3.37065 10.8301C3.37065 14.2395 3.37065 17.6155 3.37065 21.0249V21.3258H0.0149144C0.0149144 21.2589 0.0149144 21.1921 0.0149144 21.0918C0.0149144 17.5821 -0.018643 14.0724 0.0149144 10.5292C0.0484717 8.62395 0.988077 7.18664 2.63239 6.18387C3.33709 5.74933 4.14247 5.5822 4.94784 5.4485C5.85389 5.3148 6.7935 5.3148 7.69955 5.48192C7.7331 5.51535 7.80022 5.51535 7.90089 5.54878Z" fill="white"/>
<path d="M8.94116 16.0445V10.6295C8.94116 7.05295 11.8942 5.34824 14.7801 5.34824C17.6661 5.34824 20.552 7.05295 20.552 10.6295V14.8412H12.0956V15.9108C12.0956 17.3147 13.3707 18.1503 14.713 18.1503C15.8204 18.1503 16.8943 17.7492 17.4647 16.6127L20.0822 18.1838C18.9748 20.2896 16.6929 21.3258 14.7801 21.3258C11.8607 21.3258 8.94116 19.5876 8.94116 16.0445ZM17.5318 10.6964C17.5318 9.25906 16.1895 8.52369 14.8137 8.52369C13.4378 8.52369 12.0284 9.22563 12.0956 10.7632V12.1671H17.5318V10.6964Z" fill="white"/>
<path d="M31.7601 5.74936H35.2836L29.7467 21.2924H26.3238L20.8204 5.74936H24.3104L27.4648 14.8078L28.1695 16.713L28.7064 14.8078L31.7601 5.74936Z" fill="white"/>
<path d="M49.2215 10.8894L56 0.126282H50.4966L46.8724 6.51062L47.1745 7.07886L49.2215 10.8894Z" fill="white"/>
<path d="M47.1409 14.7334L46.8053 15.4019L50.4631 21.8531H56L49.1879 11.1568L47.1409 14.7334Z" fill="white"/>
<path d="M47.2624 10.9971L45.5174 14.0389L41.4905 21.6934H35.92L42.363 10.8968L35.9871 0H41.4905L45.5174 7.72137L47.2624 10.9971Z" fill="#FF4438"/>
</svg>
