<svg width="27" height="15" viewBox="0 0 27 15" fill="none" xmlns="http://www.w3.org/2000/svg">
<path d="M1.5 15C1.075 15 0.718505 14.856 0.430505 14.568C0.142505 14.28 -0.000994809 13.924 5.19031e-06 13.5C5.19031e-06 13.075 0.144005 12.7185 0.432005 12.4305C0.720005 12.1425 1.076 11.999 1.5 12C1.925 12 2.2815 12.144 2.5695 12.432C2.8575 12.72 3.001 13.076 3 13.5C3 13.925 2.856 14.2815 2.568 14.5695C2.28 14.8575 1.924 15.001 1.5 15ZM1.5 9C1.075 9 0.718505 8.856 0.430505 8.568C0.142505 8.28 -0.000994809 7.924 5.19031e-06 7.5C5.19031e-06 7.075 0.144005 6.7185 0.432005 6.4305C0.720005 6.1425 1.076 5.999 1.5 6C1.925 6 2.2815 6.144 2.5695 6.432C2.8575 6.72 3.001 7.076 3 7.5C3 7.925 2.856 8.2815 2.568 8.5695C2.28 8.8575 1.924 9.001 1.5 9ZM1.5 3C1.075 3 0.718505 2.856 0.430505 2.568C0.142505 2.28 -0.000994809 1.924 5.19031e-06 1.5C5.19031e-06 1.075 0.144005 0.718505 0.432005 0.430505C0.720005 0.142505 1.076 -0.000994809 1.5 5.1903e-06C1.925 5.1903e-06 2.2815 0.144005 2.5695 0.432005C2.8575 0.720005 3.001 1.076 3 1.5C3 1.925 2.856 2.2815 2.568 2.5695C2.28 2.8575 1.924 3.001 1.5 3ZM6 15V12H27V15H6ZM6 9V6H27V9H6ZM6 3V5.1903e-06H27V3H6Z" fill="white"/>
</svg>
